# xmcd
#
# Track frame offsets: 
#        150
#        13980
#        28182
#        42377
#        57185
#        70042
#        82217
#        94882
#        106602
#        119917
#        133372
#        145797
#        159455
#        171917
#        185722
#        200905
#        213632
#        228312
#
# Disc length: 3227 seconds
#
# Revision: 2
# Processed by: cddbd v1.5.2PL0 Copyright (c) Steve Scherf et al.
# Submitted via: ExactAudioCopy v0.99pb4
#
DISCID=190c9912
DTITLE=Billy Holiday - The Masters Disc 2
DYEAR=1997
DGENRE=Blues
TTITLE0=They Can't Take That Away From Me
TTITLE1=I'll Get By
TTITLE2=Nice Work If You Can Get It
TTITLE3=Can't Help Lovin' Dat Man
TTITLE4=When You're Smiling
TTITLE5=Back In Your Own Back Yard
TTITLE6=I Can't Get Started
TTITLE7=Say It With A Kiss
TTITLE8=Swing, Brother, Swing
TTITLE9=You're Just A No Account
TTITLE10=You're A Lucky Guy
TTITLE11=Night And Day
TTITLE12=Your Mother's Son-In-Law
TTITLE13=Miss Brown To You
TTITLE14=Ain't Nobody's Bizness If I Do
TTITLE15=It's Too Hot For Words
TTITLE16=Eeny Meeny Miney Mo
TTITLE17=Life Begins When You're In Love
EXTD=
EXTT0=
EXTT1=
EXTT2=
EXTT3=
EXTT4=
EXTT5=
EXTT6=
EXTT7=
EXTT8=
EXTT9=
EXTT10=
EXTT11=
EXTT12=
EXTT13=
EXTT14=
EXTT15=
EXTT16=
EXTT17=
PLAYORDER=
